<svg width="155" height="93" viewBox="0 0 155 93" fill="none" xmlns="http://www.w3.org/2000/svg">
<path d="M69.4942 9.81939C70.7853 8.96627 72.2173 8.18551 73.7673 8.16647C75.8087 8.14742 77.6483 9.45377 79.6782 9.65562C81.4378 9.83082 83.163 9.16813 84.9226 8.98913C89.8052 8.49401 94.2078 11.7008 98.0507 14.7515C99.6579 16.0273 101.28 17.3222 102.503 18.9713C103.725 20.6166 104.518 22.6847 104.228 24.7146C104.083 25.7391 103.672 26.7065 103.238 27.6472C101.555 31.2882 99.1399 38.2578 96.691 41.4342C95.8341 42.5463 95.1524 40.1735 93.7813 40.4706C92.9853 40.642 92.1474 40.5049 91.3781 40.2345C87.5276 38.8748 85.6005 34.6968 82.8317 31.6919C79.0651 27.6015 73.5008 25.5639 69.597 21.603C68.6868 20.6776 67.8831 19.6607 67.0224 18.6895C66.295 17.863 64.3298 16.6557 63.9032 15.7417C63.0196 13.8412 67.9936 10.8096 69.4903 9.8232L69.4942 9.81939Z" fill="#8F48B8"/>
<path d="M81.5602 9.78018C81.5602 14.2453 78.3002 16.1603 74.2801 16.1603C70.26 16.1603 67 14.2453 67 9.78018C67 5.31511 70.26 0 74.2801 0C78.3002 0 81.5602 5.32011 81.5602 9.78018Z" fill="#272321"/>
<path d="M80.1598 9.28017C80.1598 13.2252 77.2797 14.9202 73.7247 14.9202C70.1696 14.9202 67.2896 13.2252 67.2896 9.28017C67.2896 5.3351 70.1696 0.63501 73.7247 0.63501C77.2797 0.63501 80.1598 5.3351 80.1598 9.28017Z" fill="white"/>
<path d="M76.6607 12.5924C78.1575 12.5924 79.3708 11.247 79.3708 9.58733C79.3708 7.92769 78.1575 6.58228 76.6607 6.58228C75.164 6.58228 73.9507 7.92769 73.9507 9.58733C73.9507 11.247 75.164 12.5924 76.6607 12.5924Z" fill="#272321"/>
<path d="M92.8702 10.6451C92.8702 14.5902 89.9902 16.2852 86.4351 16.2852C82.88 16.2852 80 14.5902 80 10.6451C80 6.70006 82.88 2 86.4351 2C89.9902 2 92.8702 6.70006 92.8702 10.6451Z" fill="#272321"/>
<path d="M92.8902 11.6603C92.8902 15.6054 90.0102 17.3004 86.4551 17.3004C82.9001 17.3004 80.02 15.6054 80.02 11.6603C80.02 7.71523 82.9001 3.01514 86.4551 3.01514C90.0102 3.01514 92.8902 7.71523 92.8902 11.6603Z" fill="white"/>
<path d="M83.4103 14.275C84.907 14.275 86.1203 12.9296 86.1203 11.2699C86.1203 9.6103 84.907 8.26489 83.4103 8.26489C81.9135 8.26489 80.7002 9.6103 80.7002 11.2699C80.7002 12.9296 81.9135 14.275 83.4103 14.275Z" fill="#272321"/>
<path d="M98.051 31.6957C91.904 38.1245 84.9458 43.765 77.3973 48.4647C70.9113 52.5018 62.2392 55.1792 56.7321 60.5454C56.4921 60.7739 56.2636 61.0215 56.0503 61.2767L16.8984 24.8631L35.1109 16.53C44.6894 14.1268 54.5726 13.1976 64.4253 13.7803L77.5382 14.4544C77.0735 38.9548 99.544 30.1266 98.0472 31.6957H98.051Z" fill="white"/>
<path d="M99.8412 44.0928C99.5099 45.5667 98.832 47.0596 97.7046 48.0879C96.3145 49.3562 94.8711 49.8589 93.2067 50.415C91.9156 50.8453 89.9314 51.1348 88.9145 52.0679C86.9074 53.9227 87.9243 57.9178 89.3791 60.3439C88.6707 60.2791 87.9928 60.1496 87.4596 60.0202C85.9781 59.666 84.4585 59.0032 83.6587 57.7083C82.9579 56.5658 82.9389 55.1376 83.0265 53.797C83.1255 52.2735 83.2436 50.6016 84.8508 50.1217C86.6408 49.5885 88.4917 49.2305 90.3503 49.0211C91.748 48.8649 93.161 48.8001 94.5321 48.4764C96.1393 48.0956 97.6246 47.3072 98.6149 45.959C99.0567 45.3572 99.4642 44.7326 99.8412 44.0928Z" fill="#C4967F"/>
<path d="M78.4066 56.3606C78.2847 57.0614 78.0638 57.7659 77.6259 58.3258C76.8184 59.3465 75.4474 59.7083 74.1677 59.9292C72.8575 60.1539 71.5322 60.2948 70.203 60.3557C70.3744 60.272 70.561 60.192 70.7171 60.1006C73.0975 58.7067 75.1731 56.3911 73.9544 53.489C73.4098 52.1902 72.0616 51.718 70.8466 51.2572C69.7688 50.8496 67.099 49.4329 67.3009 48.0694C68.0055 47.9551 68.3711 47.8637 68.7367 47.7952C69.1594 47.7152 69.5936 47.6352 70.0316 47.5667C70.1611 48.0922 70.4163 48.5493 70.919 48.8082C71.8445 49.2805 73.0556 49.0406 74.0534 49.1663C75.6111 49.3605 76.9898 50.4192 77.7477 51.7941C78.5056 53.1652 78.677 54.8181 78.4066 56.3606Z" fill="#C4967F"/>
<path d="M117.738 51.7939C116.98 50.419 115.601 49.3603 114.043 49.166C113.045 49.0404 111.564 42.0021 111.564 42.0021C111.488 40.5092 110.543 36.8796 110.551 36.1027C110.593 33.0901 110.68 29.9519 111.305 27.0002L106.761 27.4344C105.63 30.3746 104.499 33.3186 103.368 36.2626C102.34 38.9362 101.3 41.6365 99.8412 44.093C99.5099 45.5669 98.832 47.0599 97.7047 48.0882C96.3145 49.3564 94.8711 49.8592 93.2067 50.4152C91.9156 50.8456 89.9314 51.1351 88.9145 52.0681C86.9074 53.9229 87.9243 57.9181 89.3791 60.3441C90.5446 60.4622 91.7938 60.3974 92.6164 59.8528C93.5876 59.2092 93.3781 57.0916 93.1648 55.8881C93.34 56.6955 93.6219 57.5067 93.858 58.2913C93.9494 58.5922 94.0484 58.9045 94.1932 59.1863C94.3379 59.4758 94.5283 59.7309 94.7949 59.9099C95.1072 60.1194 95.4881 60.1956 95.8575 60.2527C98.036 60.5955 100.272 60.5346 102.427 60.0661C102.999 59.9442 103.612 59.7614 103.966 59.293C104.156 59.0454 104.244 58.775 104.274 58.4932C104.377 57.6972 104.061 56.8098 104.37 56.0747C104.846 56.8974 105.055 57.819 105.505 58.6036C105.775 59.0835 106.137 59.5176 106.7 59.8452C107.595 60.3631 108.685 60.4012 109.721 60.3708C111.206 60.3289 112.691 60.1803 114.158 59.929C115.437 59.7081 116.808 59.3463 117.616 58.3256C118.054 57.7657 118.275 57.0611 118.396 56.3603C118.48 55.8843 118.522 55.3968 118.515 54.9093C118.507 53.8239 118.263 52.7422 117.738 51.7939Z" fill="#FFD4BB"/>
<path d="M27.8468 51.2567C26.7689 50.8492 24.0992 49.4324 24.301 48.0689C25.0056 47.9547 25.3712 47.8632 25.7368 47.7947C26.1596 47.7147 26.5938 47.6347 27.0317 47.5662C26.8756 46.9187 26.9175 46.1646 26.9289 45.54C27.3631 45.54 27.7972 45.4829 28.2162 45.3724C28.041 45.4181 27.5535 36.8794 27.5611 36.1024C27.603 33.0899 27.6906 29.9516 28.3152 27L23.7716 27.4342C22.6405 30.3744 21.5093 33.3184 20.3782 36.2624C19.0833 39.633 17.7655 43.0492 15.6251 45.959C14.6349 47.3072 13.1496 48.0956 11.5424 48.4764C10.1713 48.8001 8.7583 48.8649 7.36056 49.0211C5.50199 49.2305 3.65104 49.5885 1.86102 50.1217C0.253816 50.6016 0.135747 52.2735 0.0367249 53.797C-0.0508717 55.1376 -0.0318276 56.5658 0.668946 57.7083C0.752734 57.8455 0.84414 57.9711 0.943162 58.093C1.78485 59.1366 3.14451 59.7041 4.46988 60.0202C5.89047 60.3591 8.30509 60.7285 9.62665 59.8526C10.0608 59.5631 10.2589 58.9842 10.3236 58.3215C10.4112 57.4989 10.2931 56.5543 10.1751 55.8878C10.3122 56.5086 10.5102 57.1294 10.7007 57.7426C10.7578 57.9254 10.8149 58.1083 10.8682 58.2911C11.0511 58.9004 11.2758 59.5555 11.8052 59.9097C12.1175 60.1192 12.4983 60.1954 12.8677 60.2525C15.0462 60.5952 17.2818 60.5343 19.4375 60.0659C20.0088 59.944 20.6219 59.7612 20.9761 59.2927C21.6921 58.3482 20.9609 57.0723 21.3799 56.0745C22.0921 57.3008 22.2063 58.7405 23.3984 59.6355C23.4936 59.7079 23.6002 59.7802 23.7107 59.8449C24.6057 60.3629 25.6949 60.401 26.7309 60.3705C26.887 60.3667 27.047 60.3591 27.2031 60.3553C27.3745 60.2715 27.5611 60.1915 27.7173 60.1001C30.0976 58.7062 32.1733 56.3906 30.9545 53.4885C30.4099 52.1898 29.0617 51.7175 27.8468 51.2567Z" fill="#FFD4BB"/>
<path d="M145 61.0002C143.481 55.5308 143.236 52.2012 139.789 48.7126C138.201 47.1054 136.353 45.6505 135.059 43.7767C133.855 42.0362 133.371 39.892 132.556 37.9496C130.877 33.9507 128.653 29.9365 124.882 27.5675C122.654 26.1698 119.946 25.3776 118.286 23.3362C116.157 20.7274 111.865 11.922 107.926 11.9182C103.341 11.9182 96.2266 13.5787 92.7913 16.9722C91.7744 17.9776 90.0568 20.3351 87.128 21.5005C84.5724 22.5174 86.9261 23.2905 88.6895 25.4233C90.9708 28.1845 93.9415 30.424 96.6265 32.7738C99.8866 35.6226 102.575 38.738 105.485 41.9334C105.999 42.4971 106.536 43.0798 107.245 43.3578C108.163 43.7196 109.191 43.5101 110.17 43.613C113.064 43.9062 115.033 46.8388 115.563 49.699C116.092 52.5593 115.608 55.5109 115.825 58.4092C116.027 61.117 117.029 63.6307 118.838 65.2417C120.716 68.8903 148.5 76.5002 148.5 76.5002C147.207 72.288 146.171 65.2193 145 61.0002Z" fill="white"/>
<path d="M145 62.5005C145 62.5005 142.474 52.5823 139.027 49.0937C137.439 47.4865 135.592 46.0316 134.297 44.1578C133.093 42.4173 132.61 40.2731 131.795 38.3307C130.115 34.3318 127.891 30.3176 124.12 27.9486C121.892 26.5509 119.185 25.7587 117.524 23.7173C115.395 21.1085 111.103 12.3031 107.165 12.2993C102.579 12.2993 95.4649 13.9599 92.0296 17.3533C91.0127 18.3587 89.295 20.7162 86.3663 21.8816C83.8107 22.8985 86.1644 23.6716 87.9278 25.8044C90.2091 28.5656 93.1798 30.8051 95.8648 33.1549C99.1249 36.0037 101.814 39.1191 104.723 42.3145C105.238 42.8782 105.775 43.4609 106.483 43.7389C107.401 44.1007 108.429 43.8912 109.408 43.9941C112.302 44.2873 114.272 47.2199 114.801 50.0801C115.33 52.9404 114.847 55.892 115.064 58.7903C115.266 61.4981 116.267 64.0118 118.076 65.6228C119.954 69.2714 116.682 92.5005 131.795 92.5005C151.032 92.5005 151.032 91.1023 151.032 87.0005C151.032 83.1957 145 62.5005 145 62.5005Z" fill="#8F48B8"/>
<rect x="115" y="56" width="40" height="37" fill="white"/>
<path d="M99.5553 25.9069C97.8605 27.2209 96.4589 28.9538 95.0574 30.6067C89.3027 37.3859 82.6872 43.4301 75.4319 48.5678C69.1973 52.9819 60.6966 56.1659 55.517 61.8482C55.2923 62.092 55.079 62.3509 54.881 62.6175L15.3901 24.2083L31.3365 19.1848C40.7551 16.2218 50.5659 14.7098 60.4377 14.7098L73.5657 14.607C75.7976 14.5917 77.9113 13.6091 79.3624 11.9143H80.1241C80.0784 12.2875 80.0555 12.6646 80.0555 13.0416C80.0555 14.6412 80.4783 16.2218 81.2895 17.6119L81.7084 18.3279C82.1731 19.1239 82.7558 19.8475 83.4413 20.4683L84.9647 21.8546C86.0387 22.8296 87.3298 23.5342 88.7314 23.9074L90.5214 24.3873C91.702 24.6996 92.936 24.7758 94.1433 24.6006L94.5128 24.5473C94.8213 24.5054 95.1297 24.4444 95.4306 24.3683L96.5008 24.1017C97.6586 24.5092 98.6869 25.13 99.5553 25.9069Z" fill="#FFD4BB"/>
<path d="M102.175 32.2447C102.175 32.9112 102.099 33.5814 101.947 34.2556L101.833 34.7659L96.8815 42.1659C96.535 42.5849 96.1846 43 95.8304 43.4151C88.5294 51.9425 79.5831 58.9121 69.6504 64.1451L60.3195 67.9003L54.5 62.237C54.698 61.9704 54.9113 61.7114 55.136 61.4677C60.3157 55.7853 68.8163 52.6014 75.0509 48.1872C82.3062 43.0495 88.9217 37.0053 94.6764 30.2261C96.0779 28.5732 97.4795 26.8403 99.1743 25.5264C101.063 27.2212 102.175 29.6663 102.175 32.2447Z" fill="#D79C7F"/>
<path d="M7 38.3267C7 23.2867 24.7326 16.8655 46.6089 16.8655C68.4852 16.8655 86.2178 23.2867 86.2178 38.3267C86.2178 53.3666 68.4852 71.3278 46.6089 71.3278C24.7326 71.3278 7 53.3666 7 38.3267Z" fill="white"/>
<path d="M7.76172 37.5649C7.76172 22.525 25.4943 16.1038 47.3706 16.1038C69.247 16.1038 86.9796 22.525 86.9796 37.5649C86.9796 52.6049 69.247 70.566 47.3706 70.566C25.4943 70.566 7.76172 52.6049 7.76172 37.5649Z" fill="#272321"/>
<path d="M47.1093 19.6187C47.1213 19.4151 46.9319 19.2382 46.6863 19.2236C46.4406 19.209 46.2317 19.3624 46.2196 19.566C46.2075 19.7697 46.3969 19.9466 46.6426 19.9612C46.8883 19.9757 47.0972 19.8224 47.1093 19.6187Z" fill="white"/>
<path d="M49.2279 18.9996C49.24 18.7959 49.0506 18.619 48.8049 18.6045C48.5592 18.5899 48.3503 18.7432 48.3383 18.9469C48.3262 19.1506 48.5156 19.3275 48.7612 19.342C49.0069 19.3566 49.2158 19.2033 49.2279 18.9996Z" fill="white"/>
<path d="M50.933 20.3426C50.945 20.1389 50.7557 19.962 50.51 19.9475C50.2643 19.9329 50.0554 20.0862 50.0433 20.2899C50.0313 20.4936 50.2206 20.6705 50.4663 20.685C50.712 20.6996 50.9209 20.5463 50.933 20.3426Z" fill="white"/>
<path d="M52.4696 19.4388C52.4816 19.2351 52.2923 19.0582 52.0466 19.0437C51.8009 19.0291 51.592 19.1824 51.58 19.3861C51.5679 19.5898 51.7573 19.7667 52.0029 19.7812C52.2486 19.7958 52.4575 19.6425 52.4696 19.4388Z" fill="white"/>
<path d="M54.5746 19.0704C54.5866 18.8667 54.3973 18.6898 54.1516 18.6753C53.9059 18.6607 53.697 18.814 53.6849 19.0177C53.6729 19.2214 53.8623 19.3983 54.1079 19.4128C54.3536 19.4274 54.5625 19.2741 54.5746 19.0704Z" fill="white"/>
<path d="M56.3851 18.6771C56.3972 18.4734 56.2078 18.2965 55.9621 18.2819C55.7165 18.2674 55.5075 18.4207 55.4955 18.6244C55.4834 18.828 55.6728 19.005 55.9184 19.0195C56.1641 19.0341 56.373 18.8807 56.3851 18.6771Z" fill="white"/>
<path d="M55.0526 21.0789C55.0647 20.8753 54.8753 20.6984 54.6296 20.6838C54.3839 20.6693 54.175 20.8226 54.163 21.0262C54.1509 21.2299 54.3403 21.4068 54.5859 21.4214C54.8316 21.4359 55.0405 21.2826 55.0526 21.0789Z" fill="white"/>
<path d="M54.9359 23.0543C54.948 22.8506 54.7586 22.6737 54.5129 22.6591C54.2673 22.6446 54.0583 22.7979 54.0463 23.0016C54.0342 23.2053 54.2236 23.3822 54.4692 23.3967C54.7149 23.4113 54.9238 23.2579 54.9359 23.0543Z" fill="white"/>
<path d="M57.1874 20.2127C57.1994 20.0091 57.0101 19.8321 56.7644 19.8176C56.5187 19.803 56.3098 19.9564 56.2977 20.16C56.2857 20.3637 56.475 20.5406 56.7207 20.5552C56.9664 20.5697 57.1753 20.4164 57.1874 20.2127Z" fill="white"/>
<path d="M59.3182 19.3504C59.3303 19.1467 59.1409 18.9698 58.8953 18.9553C58.6496 18.9407 58.4406 19.094 58.4286 19.2977C58.4165 19.5014 58.6059 19.6783 58.8516 19.6929C59.0972 19.7074 59.3062 19.5541 59.3182 19.3504Z" fill="white"/>
<path d="M52.3397 21.661C52.3518 21.4573 52.1624 21.2804 51.9168 21.2658C51.6711 21.2513 51.4621 21.4046 51.4501 21.6083C51.438 21.8119 51.6274 21.9888 51.8731 22.0034C52.1187 22.018 52.3277 21.8646 52.3397 21.661Z" fill="white"/>
<path d="M48.1747 21.6649C48.1867 21.4612 47.9974 21.2843 47.7517 21.2697C47.506 21.2552 47.2971 21.4085 47.285 21.6122C47.273 21.8158 47.4624 21.9928 47.708 22.0073C47.9537 22.0219 48.1626 21.8685 48.1747 21.6649Z" fill="white"/>
<path d="M61.1898 22.9286C61.2019 22.7249 61.0125 22.548 60.7668 22.5334C60.5212 22.5189 60.3122 22.6722 60.3002 22.8759C60.2881 23.0795 60.4775 23.2564 60.7231 23.271C60.9688 23.2855 61.1778 23.1322 61.1898 22.9286Z" fill="white"/>
<path d="M60.3875 21.3926C60.3996 21.189 60.2102 21.0121 59.9646 20.9975C59.7189 20.983 59.51 21.1363 59.4979 21.3399C59.4859 21.5436 59.6752 21.7205 59.9209 21.7351C60.1666 21.7496 60.3755 21.5963 60.3875 21.3926Z" fill="white"/>
<path d="M57.6615 22.2252C57.6735 22.0215 57.4842 21.8446 57.2385 21.83C56.9928 21.8155 56.7839 21.9688 56.7718 22.1725C56.7598 22.3762 56.9491 22.5531 57.1948 22.5676C57.4405 22.5822 57.6494 22.4289 57.6615 22.2252Z" fill="white"/>
<path d="M59.3377 24.0582C59.3498 23.8545 59.1604 23.6776 58.9148 23.663C58.6691 23.6485 58.4602 23.8018 58.4481 24.0055C58.4361 24.2091 58.6254 24.3861 58.8711 24.4006C59.1168 24.4152 59.3257 24.2618 59.3377 24.0582Z" fill="white"/>
<path d="M64.2406 21.6224C64.2527 21.4187 64.0633 21.2418 63.8176 21.2273C63.5719 21.2127 63.363 21.366 63.3509 21.5697C63.3389 21.7734 63.5282 21.9503 63.7739 21.9648C64.0196 21.9794 64.2285 21.8261 64.2406 21.6224Z" fill="white"/>
<path d="M65.2762 24.1622C65.2883 23.9585 65.0989 23.7816 64.8533 23.7671C64.6076 23.7525 64.3987 23.9058 64.3866 24.1095C64.3745 24.3132 64.5639 24.4901 64.8096 24.5046C65.0553 24.5192 65.2642 24.3659 65.2762 24.1622Z" fill="white"/>
<path d="M68.2723 23.8441C68.2844 23.6404 68.095 23.4635 67.8493 23.4489C67.6037 23.4344 67.3947 23.5877 67.3827 23.7914C67.3706 23.9951 67.56 24.172 67.8057 24.1865C68.0513 24.2011 68.2602 24.0478 68.2723 23.8441Z" fill="white"/>
<path d="M44.8256 17.9957C44.8376 17.792 44.6483 17.6151 44.4026 17.6006C44.1569 17.586 43.948 17.7393 43.9359 17.943C43.9238 18.1467 44.1132 18.3236 44.3589 18.3381C44.6046 18.3527 44.8135 18.1994 44.8256 17.9957Z" fill="white"/>
<path d="M42.6361 19.8458C42.6481 19.6421 42.4588 19.4652 42.2131 19.4506C41.9674 19.4361 41.7585 19.5894 41.7465 19.7931C41.7344 19.9968 41.9238 20.1737 42.1694 20.1882C42.4151 20.2028 42.624 20.0495 42.6361 19.8458Z" fill="white"/>
<path d="M62.8597 19.8062C62.8718 19.6025 62.6824 19.4257 62.4368 19.4111C62.1911 19.3965 61.9822 19.5498 61.9701 19.7535C61.958 19.9572 62.1474 20.1341 62.3931 20.1487C62.6387 20.1632 62.8477 20.0099 62.8597 19.8062Z" fill="white"/>
<path d="M63.5575 23.0702C63.5696 22.8665 63.3802 22.6896 63.1345 22.675C62.8889 22.6605 62.6799 22.8138 62.6678 23.0175C62.6558 23.2211 62.8452 23.398 63.0908 23.4126C63.3365 23.4271 63.5454 23.2738 63.5575 23.0702Z" fill="white"/>
<path d="M66.5663 22.5052C66.5783 22.3015 66.389 22.1246 66.1433 22.1101C65.8976 22.0955 65.6887 22.2488 65.6766 22.4525C65.6646 22.6562 65.8539 22.8331 66.0996 22.8476C66.3453 22.8622 66.5542 22.7089 66.5663 22.5052Z" fill="white"/>
<path fill-rule="evenodd" clip-rule="evenodd" d="M34.7721 46.2576C34.7752 46.2484 34.7782 46.233 34.7782 46.233C35.1371 43.9324 33.585 40.1932 32.5451 38.1779C32.5318 38.1533 32.5189 38.1288 32.5059 38.1042C32.48 38.0552 32.4541 38.0061 32.4255 37.957C31.22 35.7147 29.3764 33.7515 27.0329 32.7638C25.8427 32.2638 24.5605 32.0246 23.2783 31.9019C22.4655 31.8252 21.6435 31.7945 20.8276 31.8436C20.8276 31.8435 20.8276 31.8435 20.8276 31.8435C19.8399 31.9018 18.8645 32.0766 17.9381 32.4263C16.251 33.0613 14.7387 34.3282 14.116 36.0214C13.4565 37.8159 13.8553 39.8281 14.4903 41.6348C15.0455 43.2146 15.7755 44.7299 16.6651 46.1501C17.3001 47.1624 18.0332 48.1409 18.9994 48.8434C19.8123 49.4262 20.7571 49.7943 21.708 50.098C24.1589 50.8771 26.8031 51.2636 29.3 50.6593C29.6926 50.5642 30.1374 50.4201 30.5975 50.2299C30.5975 50.2299 30.5974 50.2299 30.5973 50.2299C32.4102 49.4845 34.4776 48.0551 34.7721 46.2576Z" fill="white"/>
<path d="M35.7955 47.1969C35.7955 47.1969 35.7924 47.2122 35.7894 47.2214C35.4949 49.019 33.4274 50.4484 31.6146 51.1938C28.9704 51.6601 26.1238 50.9515 23.9275 49.3748C21.2281 47.4362 19.5011 44.3073 18.9643 41.0282C18.7005 39.4117 18.7067 37.6816 19.2956 36.1326C19.8539 34.6663 20.9919 34.0068 21.8447 32.8074C22.6606 32.7584 23.4827 32.789 24.2956 32.8657C25.5778 32.9884 26.86 33.2277 28.0502 33.7277C30.3937 34.7154 32.2373 36.6786 33.4428 38.9209C33.4857 38.9945 33.5225 39.0681 33.5624 39.1417C34.6023 41.1571 36.1544 44.8963 35.7955 47.1969Z" fill="#FF8CB2"/>
<path d="M31.6151 51.1937C31.155 51.3839 30.7102 51.5281 30.3176 51.6232C27.8206 52.2275 25.1765 51.841 22.7256 51.0618C21.7747 50.7582 20.8299 50.3901 20.017 49.8072C19.0508 49.1048 18.3176 48.1263 17.6827 47.114C16.7931 45.6938 16.0631 44.1784 15.5078 42.5987C14.8729 40.792 14.4741 38.7797 15.1336 36.9853C15.7563 35.292 17.2686 34.0251 18.9557 33.3902C19.882 33.0405 20.8575 32.8657 21.8452 32.8074C20.9925 34.0068 19.8544 34.6662 19.2962 36.1325C18.7072 37.6816 18.7011 39.4116 18.9649 41.0282C19.5017 44.3073 21.2287 47.4361 23.928 49.3747C26.1243 50.9514 28.9709 51.66 31.6151 51.1937Z" fill="#5C5C5C"/>
<path fill-rule="evenodd" clip-rule="evenodd" d="M61.0328 50.0266C63.0727 49.0911 64.8027 47.5635 66.226 45.8273C67.6463 44.0942 68.8119 42.0911 69.2383 39.8918C69.6646 37.6924 69.2843 35.2722 67.8978 33.5114C66.5328 31.7722 64.3303 30.8335 62.134 30.5851C59.9347 30.3335 57.7138 30.7016 55.5482 31.1648C53.947 31.5084 52.3427 31.9133 50.8243 32.5237C50.8242 32.5238 50.8242 32.5238 50.8241 32.5239C50.3303 32.7233 49.8457 32.9441 49.3734 33.1895C47.4501 34.2017 45.7262 35.7048 44.7814 37.6618C42.9256 41.5207 43.217 48.4531 47.6158 50.4746C49.306 51.2537 51.2201 51.3672 53.082 51.3703C55.7446 51.3764 58.4715 51.1678 60.8979 50.085C58.3795 50.404 55.7231 49.6924 53.6495 48.2016C51.9386 46.9729 50.6184 45.2661 49.7442 43.346C50.6184 45.2661 51.9386 46.9728 53.6494 48.2015C55.723 49.6923 58.3795 50.4039 60.8978 50.0849C60.9439 50.0665 60.9868 50.0481 61.0328 50.0266Z" fill="white"/>
<path d="M69.5744 41.0651C69.1481 43.2645 67.9824 45.2675 66.5622 47.0006C65.1389 48.7368 63.4088 50.2644 61.369 51.2C61.323 51.2215 61.28 51.2399 61.234 51.2583C58.7156 51.5773 56.0592 50.8656 53.9856 49.3749C51.2862 47.4362 49.5593 44.3074 49.0224 41.0283C48.7586 39.4117 48.7648 37.6817 49.3537 36.1326C49.7586 35.0651 50.4734 34.4271 51.1605 33.697C52.6789 33.0866 54.2831 32.6817 55.8844 32.3382C58.05 31.875 60.2708 31.5069 62.4702 31.7584C64.6665 32.0069 66.8689 32.9455 68.234 34.6848C69.6205 36.4455 70.0008 38.8657 69.5744 41.0651Z" fill="#FF8CB2"/>
<path d="M61.2338 51.2585C58.8075 52.3413 56.0805 52.5499 53.4179 52.5438C51.556 52.5407 49.6419 52.4272 47.9517 51.6481C43.553 49.6266 43.2616 42.6941 45.1174 38.8353C46.0622 36.8782 47.7861 35.3752 49.7094 34.3629C50.1818 34.1175 50.6664 33.8967 51.1603 33.6973C50.4732 34.4273 49.7585 35.0654 49.3536 36.1328C48.7646 37.6819 48.7585 39.412 49.0223 41.0285C49.5591 44.3076 51.286 47.4364 53.9854 49.3751C56.059 50.8659 58.7154 51.5775 61.2338 51.2585Z" fill="#5C5C5C"/>
</svg>
